# xmcd
# 
# Track frame offsets:
#     150
#     21862
#     44347
#     68942
# 
# Disc length: 1216
# 
# Revision: 1
# Processed by: cddbd v1.5.2PL0 Copyright (c) Steve Scherf et al.
# Submitted via: BonkEnc v1.0.8
# 
DISCID=3004be04
DTITLE=相川七瀬 - dandelion
DYEAR=2001
DGENRE=JPop
TTITLE0=dandelion
TTITLE1=dandelion (TECH ROCK MIX)
TTITLE2=dandelion (Shining Man Brothers Remix)
TTITLE3=dandelion (Eden mix)
EXTD=
EXTT0=
EXTT1=
EXTT2=
EXTT3=
PLAYORDER=
